<?xml version="1.0" encoding="utf-8"?>
<!-- Generator: Adobe Illustrator 28.1.0, SVG Export Plug-In . SVG Version: 6.00 Build 0)  -->
<svg width="600" height="600" version="1.1" id="Ñëîé_1" xmlns="http://www.w3.org/2000/svg" xmlns:xlink="http://www.w3.org/1999/xlink" x="0px" y="0px"
	 viewBox="0 0 600 600" xml:space="preserve">
	<style>
		.bg-background {
			fill: var(--bg-background, #9db4c0);
		}
		.bg-edges {
			fill: var(--bg-edges, #818181);
		}
		.bg-vertices {
			fill: var(--bg-vertices), #313131;
		}
	</style>
	<rect x="-420" y="-140" class="bg-background" width="1440" height="940"/>
	<g>
		<g>
			<rect x="-400.12" y="-120" class="bg-edges" width="0.25" height="900"/>
			<rect x="-400.5" y="-120" class="bg-edges" width="1" height="900"/>
			<rect x="-380.12" y="-120" class="bg-edges" width="0.25" height="900"/>
			<rect x="-360.12" y="-120" class="bg-edges" width="0.25" height="900"/>
			<rect x="-340.12" y="-120" class="bg-edges" width="0.25" height="900"/>
			<rect x="-320.12" y="-120" class="bg-edges" width="0.25" height="900"/>
			<rect x="-300.5" y="-120" class="bg-edges" width="1" height="900"/>
			<rect x="-280.12" y="-120" class="bg-edges" width="0.25" height="900"/>
			<rect x="-260.12" y="-120" class="bg-edges" width="0.25" height="900"/>
			<rect x="-240.12" y="-120" class="bg-edges" width="0.25" height="900"/>
			<rect x="-220.12" y="-120" class="bg-edges" width="0.25" height="900"/>
			<rect x="-200.5" y="-120" class="bg-edges" width="1" height="900"/>
			<rect x="-180.12" y="-120" class="bg-edges" width="0.25" height="900"/>
			<rect x="-160.12" y="-120" class="bg-edges" width="0.25" height="900"/>
			<rect x="-140.12" y="-120" class="bg-edges" width="0.25" height="900"/>
			<rect x="-120.12" y="-120" class="bg-edges" width="0.25" height="900"/>
			<rect x="-100.5" y="-120" class="bg-edges" width="1" height="900"/>
			<rect x="-80.12" y="-120" class="bg-edges" width="0.25" height="900"/>
			<rect x="-60.12" y="-120" class="bg-edges" width="0.25" height="900"/>
			<rect x="-40.12" y="-120" class="bg-edges" width="0.25" height="900"/>
			<rect x="-20.12" y="-120" class="bg-edges" width="0.25" height="900"/>
			<rect x="-0.5" y="-120" class="bg-edges" width="1" height="900"/>
			<rect x="19.88" y="-120" class="bg-edges" width="0.25" height="900"/>
			<rect x="39.88" y="-120" class="bg-edges" width="0.25" height="900"/>
			<rect x="59.88" y="-120" class="bg-edges" width="0.25" height="900"/>
			<rect x="79.88" y="-120" class="bg-edges" width="0.25" height="900"/>
			<rect x="99.5" y="-120" class="bg-edges" width="1" height="900"/>
			<rect x="119.88" y="-120" class="bg-edges" width="0.25" height="900"/>
			<rect x="139.88" y="-120" class="bg-edges" width="0.25" height="900"/>
			<rect x="159.88" y="-120" class="bg-edges" width="0.25" height="900"/>
			<rect x="179.88" y="-120" class="bg-edges" width="0.25" height="900"/>
			<rect x="199.5" y="-120" class="bg-edges" width="1" height="900"/>
			<rect x="219.88" y="-120" class="bg-edges" width="0.25" height="900"/>
			<rect x="239.88" y="-120" class="bg-edges" width="0.25" height="900"/>
			<rect x="259.88" y="-120" class="bg-edges" width="0.25" height="900"/>
			<rect x="279.88" y="-120" class="bg-edges" width="0.25" height="900"/>
			<rect x="299.5" y="-120" class="bg-edges" width="1" height="900"/>
			<rect x="319.88" y="-120" class="bg-edges" width="0.25" height="900"/>
			<rect x="339.88" y="-120" class="bg-edges" width="0.25" height="900"/>
			<rect x="359.88" y="-120" class="bg-edges" width="0.25" height="900"/>
			<rect x="379.88" y="-120" class="bg-edges" width="0.25" height="900"/>
			<rect x="399.5" y="-120" class="bg-edges" width="1" height="900"/>
			<rect x="419.88" y="-120" class="bg-edges" width="0.25" height="900"/>
			<rect x="439.88" y="-120" class="bg-edges" width="0.25" height="900"/>
			<rect x="459.88" y="-120" class="bg-edges" width="0.25" height="900"/>
			<rect x="479.88" y="-120" class="bg-edges" width="0.25" height="900"/>
			<rect x="499.5" y="-120" class="bg-edges" width="1" height="900"/>
			<rect x="519.88" y="-120" class="bg-edges" width="0.25" height="900"/>
			<rect x="539.88" y="-120" class="bg-edges" width="0.25" height="900"/>
			<rect x="559.88" y="-120" class="bg-edges" width="0.25" height="900"/>
			<rect x="579.88" y="-120" class="bg-edges" width="0.25" height="900"/>
			<rect x="599.5" y="-120" class="bg-edges" width="1" height="900"/>
			<rect x="619.88" y="-120" class="bg-edges" width="0.25" height="900"/>
			<rect x="639.88" y="-120" class="bg-edges" width="0.25" height="900"/>
			<rect x="659.88" y="-120" class="bg-edges" width="0.25" height="900"/>
			<rect x="679.88" y="-120" class="bg-edges" width="0.25" height="900"/>
			<rect x="699.5" y="-120" class="bg-edges" width="1" height="900"/>
			<rect x="719.88" y="-120" class="bg-edges" width="0.25" height="900"/>
			<rect x="739.88" y="-120" class="bg-edges" width="0.25" height="900"/>
			<rect x="759.88" y="-120" class="bg-edges" width="0.25" height="900"/>
			<rect x="779.88" y="-120" class="bg-edges" width="0.25" height="900"/>
			<rect x="799.5" y="-120" class="bg-edges" width="1" height="900"/>
			<rect x="819.88" y="-120" class="bg-edges" width="0.25" height="900"/>
			<rect x="839.88" y="-120" class="bg-edges" width="0.25" height="900"/>
			<rect x="859.88" y="-120" class="bg-edges" width="0.25" height="900"/>
			<rect x="879.88" y="-120" class="bg-edges" width="0.25" height="900"/>
			<rect x="899.5" y="-120" class="bg-edges" width="1" height="900"/>
			<rect x="919.88" y="-120" class="bg-edges" width="0.25" height="900"/>
			<rect x="939.88" y="-120" class="bg-edges" width="0.25" height="900"/>
			<rect x="959.88" y="-120" class="bg-edges" width="0.25" height="900"/>
			<rect x="979.88" y="-120" class="bg-edges" width="0.25" height="900"/>
			<rect x="999.5" y="-120" class="bg-edges" width="1" height="900"/>
			<rect x="-400" y="-120.12" class="bg-edges" width="1400" height="0.25"/>
			<rect x="-400" y="-120.5" class="bg-edges" width="1400" height="1"/>
			<rect x="-400" y="-100.12" class="bg-edges" width="1400" height="0.25"/>
			<rect x="-400" y="-80.12" class="bg-edges" width="1400" height="0.25"/>
			<rect x="-400" y="-60.12" class="bg-edges" width="1400" height="0.25"/>
			<rect x="-400" y="-40.12" class="bg-edges" width="1400" height="0.25"/>
			<rect x="-400" y="-20.5" class="bg-edges" width="1400" height="1"/>
			<rect x="-400" y="-0.12" class="bg-edges" width="1400" height="0.25"/>
			<rect x="-400" y="19.88" class="bg-edges" width="1400" height="0.25"/>
			<rect x="-400" y="39.88" class="bg-edges" width="1400" height="0.25"/>
			<rect x="-400" y="59.88" class="bg-edges" width="1400" height="0.25"/>
			<rect x="-400" y="79.5" class="bg-edges" width="1400" height="1"/>
			<rect x="-400" y="99.88" class="bg-edges" width="1400" height="0.25"/>
			<rect x="-400" y="119.88" class="bg-edges" width="1400" height="0.25"/>
			<rect x="-400" y="139.88" class="bg-edges" width="1400" height="0.25"/>
			<rect x="-400" y="159.88" class="bg-edges" width="1400" height="0.25"/>
			<rect x="-400" y="179.5" class="bg-edges" width="1400" height="1"/>
			<rect x="-400" y="199.88" class="bg-edges" width="1400" height="0.25"/>
			<rect x="-400" y="219.88" class="bg-edges" width="1400" height="0.25"/>
			<rect x="-400" y="239.88" class="bg-edges" width="1400" height="0.25"/>
			<rect x="-400" y="259.88" class="bg-edges" width="1400" height="0.25"/>
			<rect x="-400" y="279.5" class="bg-edges" width="1400" height="1"/>
			<rect x="-400" y="299.88" class="bg-edges" width="1400" height="0.25"/>
			<rect x="-400" y="319.88" class="bg-edges" width="1400" height="0.25"/>
			<rect x="-400" y="339.88" class="bg-edges" width="1400" height="0.25"/>
			<rect x="-400" y="359.88" class="bg-edges" width="1400" height="0.25"/>
			<rect x="-400" y="379.5" class="bg-edges" width="1400" height="1"/>
			<rect x="-400" y="399.88" class="bg-edges" width="1400" height="0.25"/>
			<rect x="-400" y="419.88" class="bg-edges" width="1400" height="0.25"/>
			<rect x="-400" y="439.88" class="bg-edges" width="1400" height="0.25"/>
			<rect x="-400" y="459.88" class="bg-edges" width="1400" height="0.25"/>
			<rect x="-400" y="479.5" class="bg-edges" width="1400" height="1"/>
			<rect x="-400" y="499.88" class="bg-edges" width="1400" height="0.25"/>
			<rect x="-400" y="519.88" class="bg-edges" width="1400" height="0.25"/>
			<rect x="-400" y="539.88" class="bg-edges" width="1400" height="0.25"/>
			<rect x="-400" y="559.88" class="bg-edges" width="1400" height="0.25"/>
			<rect x="-400" y="579.5" class="bg-edges" width="1400" height="1"/>
			<rect x="-400" y="599.88" class="bg-edges" width="1400" height="0.25"/>
			<rect x="-400" y="619.88" class="bg-edges" width="1400" height="0.25"/>
			<rect x="-400" y="639.88" class="bg-edges" width="1400" height="0.25"/>
			<rect x="-400" y="659.88" class="bg-edges" width="1400" height="0.25"/>
			<rect x="-400" y="679.5" class="bg-edges" width="1400" height="1"/>
			<rect x="-400" y="699.88" class="bg-edges" width="1400" height="0.25"/>
			<rect x="-400" y="719.88" class="bg-edges" width="1400" height="0.25"/>
			<rect x="-400" y="739.88" class="bg-edges" width="1400" height="0.25"/>
			<rect x="-400" y="759.88" class="bg-edges" width="1400" height="0.25"/>
			<rect x="-400" y="779.5" class="bg-edges" width="1400" height="1"/>
		</g>
	</g>
	<g>
		<polygon class="bg-vertices" points="-395.28,-120.75 -399.25,-120.75 -399.25,-124.72 -400.75,-124.72 -400.75,-120.75 -404.72,-120.75 
			-404.72,-119.25 -400.75,-119.25 -400.75,-115.28 -399.25,-115.28 -399.25,-119.25 -395.28,-119.25 	"/>
		<polygon class="bg-vertices" points="-295.28,-120.75 -299.25,-120.75 -299.25,-124.72 -300.75,-124.72 -300.75,-120.75 -304.72,-120.75 
			-304.72,-119.25 -300.75,-119.25 -300.75,-115.28 -299.25,-115.28 -299.25,-119.25 -295.28,-119.25 	"/>
		<polygon class="bg-vertices" points="-195.28,-120.75 -199.25,-120.75 -199.25,-124.72 -200.75,-124.72 -200.75,-120.75 -204.72,-120.75 
			-204.72,-119.25 -200.75,-119.25 -200.75,-115.28 -199.25,-115.28 -199.25,-119.25 -195.28,-119.25 	"/>
		<polygon class="bg-vertices" points="-95.28,-120.75 -99.25,-120.75 -99.25,-124.72 -100.75,-124.72 -100.75,-120.75 -104.72,-120.75 
			-104.72,-119.25 -100.75,-119.25 -100.75,-115.28 -99.25,-115.28 -99.25,-119.25 -95.28,-119.25 	"/>
		<polygon class="bg-vertices" points="4.72,-120.75 0.75,-120.75 0.75,-124.72 -0.75,-124.72 -0.75,-120.75 -4.72,-120.75 -4.72,-119.25 
			-0.75,-119.25 -0.75,-115.28 0.75,-115.28 0.75,-119.25 4.72,-119.25 	"/>
		<polygon class="bg-vertices" points="104.72,-120.75 100.75,-120.75 100.75,-124.72 99.25,-124.72 99.25,-120.75 95.28,-120.75 
			95.28,-119.25 99.25,-119.25 99.25,-115.28 100.75,-115.28 100.75,-119.25 104.72,-119.25 	"/>
		<polygon class="bg-vertices" points="204.72,-120.75 200.75,-120.75 200.75,-124.72 199.25,-124.72 199.25,-120.75 195.28,-120.75 
			195.28,-119.25 199.25,-119.25 199.25,-115.28 200.75,-115.28 200.75,-119.25 204.72,-119.25 	"/>
		<polygon class="bg-vertices" points="304.72,-120.75 300.75,-120.75 300.75,-124.72 299.25,-124.72 299.25,-120.75 295.28,-120.75 
			295.28,-119.25 299.25,-119.25 299.25,-115.28 300.75,-115.28 300.75,-119.25 304.72,-119.25 	"/>
		<polygon class="bg-vertices" points="404.72,-120.75 400.75,-120.75 400.75,-124.72 399.25,-124.72 399.25,-120.75 395.28,-120.75 
			395.28,-119.25 399.25,-119.25 399.25,-115.28 400.75,-115.28 400.75,-119.25 404.72,-119.25 	"/>
		<polygon class="bg-vertices" points="504.72,-120.75 500.75,-120.75 500.75,-124.72 499.25,-124.72 499.25,-120.75 495.28,-120.75 
			495.28,-119.25 499.25,-119.25 499.25,-115.28 500.75,-115.28 500.75,-119.25 504.72,-119.25 	"/>
		<polygon class="bg-vertices" points="604.72,-120.75 600.75,-120.75 600.75,-124.72 599.25,-124.72 599.25,-120.75 595.28,-120.75 
			595.28,-119.25 599.25,-119.25 599.25,-115.28 600.75,-115.28 600.75,-119.25 604.72,-119.25 	"/>
		<polygon class="bg-vertices" points="704.72,-120.75 700.75,-120.75 700.75,-124.72 699.25,-124.72 699.25,-120.75 695.28,-120.75 
			695.28,-119.25 699.25,-119.25 699.25,-115.28 700.75,-115.28 700.75,-119.25 704.72,-119.25 	"/>
		<polygon class="bg-vertices" points="804.72,-120.75 800.75,-120.75 800.75,-124.72 799.25,-124.72 799.25,-120.75 795.28,-120.75 
			795.28,-119.25 799.25,-119.25 799.25,-115.28 800.75,-115.28 800.75,-119.25 804.72,-119.25 	"/>
		<polygon class="bg-vertices" points="904.72,-120.75 900.75,-120.75 900.75,-124.72 899.25,-124.72 899.25,-120.75 895.28,-120.75 
			895.28,-119.25 899.25,-119.25 899.25,-115.28 900.75,-115.28 900.75,-119.25 904.72,-119.25 	"/>
		<polygon class="bg-vertices" points="1004.72,-120.75 1000.75,-120.75 1000.75,-124.72 999.25,-124.72 999.25,-120.75 995.28,-120.75 
			995.28,-119.25 999.25,-119.25 999.25,-115.28 1000.75,-115.28 1000.75,-119.25 1004.72,-119.25 	"/>
		<polygon class="bg-vertices" points="-395.28,-20.75 -399.25,-20.75 -399.25,-24.72 -400.75,-24.72 -400.75,-20.75 -404.72,-20.75 
			-404.72,-19.25 -400.75,-19.25 -400.75,-15.28 -399.25,-15.28 -399.25,-19.25 -395.28,-19.25 	"/>
		<polygon class="bg-vertices" points="-295.28,-20.75 -299.25,-20.75 -299.25,-24.72 -300.75,-24.72 -300.75,-20.75 -304.72,-20.75 
			-304.72,-19.25 -300.75,-19.25 -300.75,-15.28 -299.25,-15.28 -299.25,-19.25 -295.28,-19.25 	"/>
		<polygon class="bg-vertices" points="-195.28,-20.75 -199.25,-20.75 -199.25,-24.72 -200.75,-24.72 -200.75,-20.75 -204.72,-20.75 
			-204.72,-19.25 -200.75,-19.25 -200.75,-15.28 -199.25,-15.28 -199.25,-19.25 -195.28,-19.25 	"/>
		<polygon class="bg-vertices" points="-95.28,-20.75 -99.25,-20.75 -99.25,-24.72 -100.75,-24.72 -100.75,-20.75 -104.72,-20.75 
			-104.72,-19.25 -100.75,-19.25 -100.75,-15.28 -99.25,-15.28 -99.25,-19.25 -95.28,-19.25 	"/>
		<polygon class="bg-vertices" points="4.72,-20.75 0.75,-20.75 0.75,-24.72 -0.75,-24.72 -0.75,-20.75 -4.72,-20.75 -4.72,-19.25 
			-0.75,-19.25 -0.75,-15.28 0.75,-15.28 0.75,-19.25 4.72,-19.25 	"/>
		<polygon class="bg-vertices" points="104.72,-20.75 100.75,-20.75 100.75,-24.72 99.25,-24.72 99.25,-20.75 95.28,-20.75 95.28,-19.25 
			99.25,-19.25 99.25,-15.28 100.75,-15.28 100.75,-19.25 104.72,-19.25 	"/>
		<polygon class="bg-vertices" points="204.72,-20.75 200.75,-20.75 200.75,-24.72 199.25,-24.72 199.25,-20.75 195.28,-20.75 195.28,-19.25 
			199.25,-19.25 199.25,-15.28 200.75,-15.28 200.75,-19.25 204.72,-19.25 	"/>
		<polygon class="bg-vertices" points="304.72,-20.75 300.75,-20.75 300.75,-24.72 299.25,-24.72 299.25,-20.75 295.28,-20.75 295.28,-19.25 
			299.25,-19.25 299.25,-15.28 300.75,-15.28 300.75,-19.25 304.72,-19.25 	"/>
		<polygon class="bg-vertices" points="404.72,-20.75 400.75,-20.75 400.75,-24.72 399.25,-24.72 399.25,-20.75 395.28,-20.75 395.28,-19.25 
			399.25,-19.25 399.25,-15.28 400.75,-15.28 400.75,-19.25 404.72,-19.25 	"/>
		<polygon class="bg-vertices" points="504.72,-20.75 500.75,-20.75 500.75,-24.72 499.25,-24.72 499.25,-20.75 495.28,-20.75 495.28,-19.25 
			499.25,-19.25 499.25,-15.28 500.75,-15.28 500.75,-19.25 504.72,-19.25 	"/>
		<polygon class="bg-vertices" points="604.72,-20.75 600.75,-20.75 600.75,-24.72 599.25,-24.72 599.25,-20.75 595.28,-20.75 595.28,-19.25 
			599.25,-19.25 599.25,-15.28 600.75,-15.28 600.75,-19.25 604.72,-19.25 	"/>
		<polygon class="bg-vertices" points="704.72,-20.75 700.75,-20.75 700.75,-24.72 699.25,-24.72 699.25,-20.75 695.28,-20.75 695.28,-19.25 
			699.25,-19.25 699.25,-15.28 700.75,-15.28 700.75,-19.25 704.72,-19.25 	"/>
		<polygon class="bg-vertices" points="804.72,-20.75 800.75,-20.75 800.75,-24.72 799.25,-24.72 799.25,-20.75 795.28,-20.75 795.28,-19.25 
			799.25,-19.25 799.25,-15.28 800.75,-15.28 800.75,-19.25 804.72,-19.25 	"/>
		<polygon class="bg-vertices" points="904.72,-20.75 900.75,-20.75 900.75,-24.72 899.25,-24.72 899.25,-20.75 895.28,-20.75 895.28,-19.25 
			899.25,-19.25 899.25,-15.28 900.75,-15.28 900.75,-19.25 904.72,-19.25 	"/>
		<polygon class="bg-vertices" points="1004.72,-20.75 1000.75,-20.75 1000.75,-24.72 999.25,-24.72 999.25,-20.75 995.28,-20.75 
			995.28,-19.25 999.25,-19.25 999.25,-15.28 1000.75,-15.28 1000.75,-19.25 1004.72,-19.25 	"/>
		<polygon class="bg-vertices" points="-395.28,79.25 -399.25,79.25 -399.25,75.28 -400.75,75.28 -400.75,79.25 -404.72,79.25 -404.72,80.75 
			-400.75,80.75 -400.75,84.72 -399.25,84.72 -399.25,80.75 -395.28,80.75 	"/>
		<polygon class="bg-vertices" points="-295.28,79.25 -299.25,79.25 -299.25,75.28 -300.75,75.28 -300.75,79.25 -304.72,79.25 -304.72,80.75 
			-300.75,80.75 -300.75,84.72 -299.25,84.72 -299.25,80.75 -295.28,80.75 	"/>
		<polygon class="bg-vertices" points="-195.28,79.25 -199.25,79.25 -199.25,75.28 -200.75,75.28 -200.75,79.25 -204.72,79.25 -204.72,80.75 
			-200.75,80.75 -200.75,84.72 -199.25,84.72 -199.25,80.75 -195.28,80.75 	"/>
		<polygon class="bg-vertices" points="-95.28,79.25 -99.25,79.25 -99.25,75.28 -100.75,75.28 -100.75,79.25 -104.72,79.25 -104.72,80.75 
			-100.75,80.75 -100.75,84.72 -99.25,84.72 -99.25,80.75 -95.28,80.75 	"/>
		<polygon class="bg-vertices" points="4.72,79.25 0.75,79.25 0.75,75.28 -0.75,75.28 -0.75,79.25 -4.72,79.25 -4.72,80.75 -0.75,80.75 
			-0.75,84.72 0.75,84.72 0.75,80.75 4.72,80.75 	"/>
		<polygon class="bg-vertices" points="104.72,79.25 100.75,79.25 100.75,75.28 99.25,75.28 99.25,79.25 95.28,79.25 95.28,80.75 
			99.25,80.75 99.25,84.72 100.75,84.72 100.75,80.75 104.72,80.75 	"/>
		<polygon class="bg-vertices" points="204.72,79.25 200.75,79.25 200.75,75.28 199.25,75.28 199.25,79.25 195.28,79.25 195.28,80.75 
			199.25,80.75 199.25,84.72 200.75,84.72 200.75,80.75 204.72,80.75 	"/>
		<polygon class="bg-vertices" points="304.72,79.25 300.75,79.25 300.75,75.28 299.25,75.28 299.25,79.25 295.28,79.25 295.28,80.75 
			299.25,80.75 299.25,84.72 300.75,84.72 300.75,80.75 304.72,80.75 	"/>
		<polygon class="bg-vertices" points="404.72,79.25 400.75,79.25 400.75,75.28 399.25,75.28 399.25,79.25 395.28,79.25 395.28,80.75 
			399.25,80.75 399.25,84.72 400.75,84.72 400.75,80.75 404.72,80.75 	"/>
		<polygon class="bg-vertices" points="504.72,79.25 500.75,79.25 500.75,75.28 499.25,75.28 499.25,79.25 495.28,79.25 495.28,80.75 
			499.25,80.75 499.25,84.72 500.75,84.72 500.75,80.75 504.72,80.75 	"/>
		<polygon class="bg-vertices" points="604.72,79.25 600.75,79.25 600.75,75.28 599.25,75.28 599.25,79.25 595.28,79.25 595.28,80.75 
			599.25,80.75 599.25,84.72 600.75,84.72 600.75,80.75 604.72,80.75 	"/>
		<polygon class="bg-vertices" points="704.72,79.25 700.75,79.25 700.75,75.28 699.25,75.28 699.25,79.25 695.28,79.25 695.28,80.75 
			699.25,80.75 699.25,84.72 700.75,84.72 700.75,80.75 704.72,80.75 	"/>
		<polygon class="bg-vertices" points="804.72,79.25 800.75,79.25 800.75,75.28 799.25,75.28 799.25,79.25 795.28,79.25 795.28,80.75 
			799.25,80.75 799.25,84.72 800.75,84.72 800.75,80.75 804.72,80.75 	"/>
		<polygon class="bg-vertices" points="904.72,79.25 900.75,79.25 900.75,75.28 899.25,75.28 899.25,79.25 895.28,79.25 895.28,80.75 
			899.25,80.75 899.25,84.72 900.75,84.72 900.75,80.75 904.72,80.75 	"/>
		<polygon class="bg-vertices" points="1004.72,79.25 1000.75,79.25 1000.75,75.28 999.25,75.28 999.25,79.25 995.28,79.25 995.28,80.75 
			999.25,80.75 999.25,84.72 1000.75,84.72 1000.75,80.75 1004.72,80.75 	"/>
		<polygon class="bg-vertices" points="-395.28,179.25 -399.25,179.25 -399.25,175.28 -400.75,175.28 -400.75,179.25 -404.72,179.25 
			-404.72,180.75 -400.75,180.75 -400.75,184.72 -399.25,184.72 -399.25,180.75 -395.28,180.75 	"/>
		<polygon class="bg-vertices" points="-295.28,179.25 -299.25,179.25 -299.25,175.28 -300.75,175.28 -300.75,179.25 -304.72,179.25 
			-304.72,180.75 -300.75,180.75 -300.75,184.72 -299.25,184.72 -299.25,180.75 -295.28,180.75 	"/>
		<polygon class="bg-vertices" points="-195.28,179.25 -199.25,179.25 -199.25,175.28 -200.75,175.28 -200.75,179.25 -204.72,179.25 
			-204.72,180.75 -200.75,180.75 -200.75,184.72 -199.25,184.72 -199.25,180.75 -195.28,180.75 	"/>
		<polygon class="bg-vertices" points="-95.28,179.25 -99.25,179.25 -99.25,175.28 -100.75,175.28 -100.75,179.25 -104.72,179.25 
			-104.72,180.75 -100.75,180.75 -100.75,184.72 -99.25,184.72 -99.25,180.75 -95.28,180.75 	"/>
		<polygon class="bg-vertices" points="4.72,179.25 0.75,179.25 0.75,175.28 -0.75,175.28 -0.75,179.25 -4.72,179.25 -4.72,180.75 
			-0.75,180.75 -0.75,184.72 0.75,184.72 0.75,180.75 4.72,180.75 	"/>
		<polygon class="bg-vertices" points="104.72,179.25 100.75,179.25 100.75,175.28 99.25,175.28 99.25,179.25 95.28,179.25 95.28,180.75 
			99.25,180.75 99.25,184.72 100.75,184.72 100.75,180.75 104.72,180.75 	"/>
		<polygon class="bg-vertices" points="204.72,179.25 200.75,179.25 200.75,175.28 199.25,175.28 199.25,179.25 195.28,179.25 195.28,180.75 
			199.25,180.75 199.25,184.72 200.75,184.72 200.75,180.75 204.72,180.75 	"/>
		<polygon class="bg-vertices" points="304.72,179.25 300.75,179.25 300.75,175.28 299.25,175.28 299.25,179.25 295.28,179.25 295.28,180.75 
			299.25,180.75 299.25,184.72 300.75,184.72 300.75,180.75 304.72,180.75 	"/>
		<polygon class="bg-vertices" points="404.72,179.25 400.75,179.25 400.75,175.28 399.25,175.28 399.25,179.25 395.28,179.25 395.28,180.75 
			399.25,180.75 399.25,184.72 400.75,184.72 400.75,180.75 404.72,180.75 	"/>
		<polygon class="bg-vertices" points="504.72,179.25 500.75,179.25 500.75,175.28 499.25,175.28 499.25,179.25 495.28,179.25 495.28,180.75 
			499.25,180.75 499.25,184.72 500.75,184.72 500.75,180.75 504.72,180.75 	"/>
		<polygon class="bg-vertices" points="604.72,179.25 600.75,179.25 600.75,175.28 599.25,175.28 599.25,179.25 595.28,179.25 595.28,180.75 
			599.25,180.75 599.25,184.72 600.75,184.72 600.75,180.75 604.72,180.75 	"/>
		<polygon class="bg-vertices" points="704.72,179.25 700.75,179.25 700.75,175.28 699.25,175.28 699.25,179.25 695.28,179.25 695.28,180.75 
			699.25,180.75 699.25,184.72 700.75,184.72 700.75,180.75 704.72,180.75 	"/>
		<polygon class="bg-vertices" points="804.72,179.25 800.75,179.25 800.75,175.28 799.25,175.28 799.25,179.25 795.28,179.25 795.28,180.75 
			799.25,180.75 799.25,184.72 800.75,184.72 800.75,180.75 804.72,180.75 	"/>
		<polygon class="bg-vertices" points="904.72,179.25 900.75,179.25 900.75,175.28 899.25,175.28 899.25,179.25 895.28,179.25 895.28,180.75 
			899.25,180.75 899.25,184.72 900.75,184.72 900.75,180.75 904.72,180.75 	"/>
		<polygon class="bg-vertices" points="1004.72,179.25 1000.75,179.25 1000.75,175.28 999.25,175.28 999.25,179.25 995.28,179.25 
			995.28,180.75 999.25,180.75 999.25,184.72 1000.75,184.72 1000.75,180.75 1004.72,180.75 	"/>
		<polygon class="bg-vertices" points="-395.28,279.25 -399.25,279.25 -399.25,275.28 -400.75,275.28 -400.75,279.25 -404.72,279.25 
			-404.72,280.75 -400.75,280.75 -400.75,284.72 -399.25,284.72 -399.25,280.75 -395.28,280.75 	"/>
		<polygon class="bg-vertices" points="-295.28,279.25 -299.25,279.25 -299.25,275.28 -300.75,275.28 -300.75,279.25 -304.72,279.25 
			-304.72,280.75 -300.75,280.75 -300.75,284.72 -299.25,284.72 -299.25,280.75 -295.28,280.75 	"/>
		<polygon class="bg-vertices" points="-195.28,279.25 -199.25,279.25 -199.25,275.28 -200.75,275.28 -200.75,279.25 -204.72,279.25 
			-204.72,280.75 -200.75,280.75 -200.75,284.72 -199.25,284.72 -199.25,280.75 -195.28,280.75 	"/>
		<polygon class="bg-vertices" points="-95.28,279.25 -99.25,279.25 -99.25,275.28 -100.75,275.28 -100.75,279.25 -104.72,279.25 
			-104.72,280.75 -100.75,280.75 -100.75,284.72 -99.25,284.72 -99.25,280.75 -95.28,280.75 	"/>
		<polygon class="bg-vertices" points="4.72,279.25 0.75,279.25 0.75,275.28 -0.75,275.28 -0.75,279.25 -4.72,279.25 -4.72,280.75 
			-0.75,280.75 -0.75,284.72 0.75,284.72 0.75,280.75 4.72,280.75 	"/>
		<polygon class="bg-vertices" points="104.72,279.25 100.75,279.25 100.75,275.28 99.25,275.28 99.25,279.25 95.28,279.25 95.28,280.75 
			99.25,280.75 99.25,284.72 100.75,284.72 100.75,280.75 104.72,280.75 	"/>
		<polygon class="bg-vertices" points="204.72,279.25 200.75,279.25 200.75,275.28 199.25,275.28 199.25,279.25 195.28,279.25 195.28,280.75 
			199.25,280.75 199.25,284.72 200.75,284.72 200.75,280.75 204.72,280.75 	"/>
		<polygon class="bg-vertices" points="304.72,279.25 300.75,279.25 300.75,275.28 299.25,275.28 299.25,279.25 295.28,279.25 295.28,280.75 
			299.25,280.75 299.25,284.72 300.75,284.72 300.75,280.75 304.72,280.75 	"/>
		<polygon class="bg-vertices" points="404.72,279.25 400.75,279.25 400.75,275.28 399.25,275.28 399.25,279.25 395.28,279.25 395.28,280.75 
			399.25,280.75 399.25,284.72 400.75,284.72 400.75,280.75 404.72,280.75 	"/>
		<polygon class="bg-vertices" points="504.72,279.25 500.75,279.25 500.75,275.28 499.25,275.28 499.25,279.25 495.28,279.25 495.28,280.75 
			499.25,280.75 499.25,284.72 500.75,284.72 500.75,280.75 504.72,280.75 	"/>
		<polygon class="bg-vertices" points="604.72,279.25 600.75,279.25 600.75,275.28 599.25,275.28 599.25,279.25 595.28,279.25 595.28,280.75 
			599.25,280.75 599.25,284.72 600.75,284.72 600.75,280.75 604.72,280.75 	"/>
		<polygon class="bg-vertices" points="704.72,279.25 700.75,279.25 700.75,275.28 699.25,275.28 699.25,279.25 695.28,279.25 695.28,280.75 
			699.25,280.75 699.25,284.72 700.75,284.72 700.75,280.75 704.72,280.75 	"/>
		<polygon class="bg-vertices" points="804.72,279.25 800.75,279.25 800.75,275.28 799.25,275.28 799.25,279.25 795.28,279.25 795.28,280.75 
			799.25,280.75 799.25,284.72 800.75,284.72 800.75,280.75 804.72,280.75 	"/>
		<polygon class="bg-vertices" points="904.72,279.25 900.75,279.25 900.75,275.28 899.25,275.28 899.25,279.25 895.28,279.25 895.28,280.75 
			899.25,280.75 899.25,284.72 900.75,284.72 900.75,280.75 904.72,280.75 	"/>
		<polygon class="bg-vertices" points="1004.72,279.25 1000.75,279.25 1000.75,275.28 999.25,275.28 999.25,279.25 995.28,279.25 
			995.28,280.75 999.25,280.75 999.25,284.72 1000.75,284.72 1000.75,280.75 1004.72,280.75 	"/>
		<polygon class="bg-vertices" points="-395.28,379.25 -399.25,379.25 -399.25,375.28 -400.75,375.28 -400.75,379.25 -404.72,379.25 
			-404.72,380.75 -400.75,380.75 -400.75,384.72 -399.25,384.72 -399.25,380.75 -395.28,380.75 	"/>
		<polygon class="bg-vertices" points="-295.28,379.25 -299.25,379.25 -299.25,375.28 -300.75,375.28 -300.75,379.25 -304.72,379.25 
			-304.72,380.75 -300.75,380.75 -300.75,384.72 -299.25,384.72 -299.25,380.75 -295.28,380.75 	"/>
		<polygon class="bg-vertices" points="-195.28,379.25 -199.25,379.25 -199.25,375.28 -200.75,375.28 -200.75,379.25 -204.72,379.25 
			-204.72,380.75 -200.75,380.75 -200.75,384.72 -199.25,384.72 -199.25,380.75 -195.28,380.75 	"/>
		<polygon class="bg-vertices" points="-95.28,379.25 -99.25,379.25 -99.25,375.28 -100.75,375.28 -100.75,379.25 -104.72,379.25 
			-104.72,380.75 -100.75,380.75 -100.75,384.72 -99.25,384.72 -99.25,380.75 -95.28,380.75 	"/>
		<polygon class="bg-vertices" points="4.72,379.25 0.75,379.25 0.75,375.28 -0.75,375.28 -0.75,379.25 -4.72,379.25 -4.72,380.75 
			-0.75,380.75 -0.75,384.72 0.75,384.72 0.75,380.75 4.72,380.75 	"/>
		<polygon class="bg-vertices" points="104.72,379.25 100.75,379.25 100.75,375.28 99.25,375.28 99.25,379.25 95.28,379.25 95.28,380.75 
			99.25,380.75 99.25,384.72 100.75,384.72 100.75,380.75 104.72,380.75 	"/>
		<polygon class="bg-vertices" points="204.72,379.25 200.75,379.25 200.75,375.28 199.25,375.28 199.25,379.25 195.28,379.25 195.28,380.75 
			199.25,380.75 199.25,384.72 200.75,384.72 200.75,380.75 204.72,380.75 	"/>
		<polygon class="bg-vertices" points="304.72,379.25 300.75,379.25 300.75,375.28 299.25,375.28 299.25,379.25 295.28,379.25 295.28,380.75 
			299.25,380.75 299.25,384.72 300.75,384.72 300.75,380.75 304.72,380.75 	"/>
		<polygon class="bg-vertices" points="404.72,379.25 400.75,379.25 400.75,375.28 399.25,375.28 399.25,379.25 395.28,379.25 395.28,380.75 
			399.25,380.75 399.25,384.72 400.75,384.72 400.75,380.75 404.72,380.75 	"/>
		<polygon class="bg-vertices" points="504.72,379.25 500.75,379.25 500.75,375.28 499.25,375.28 499.25,379.25 495.28,379.25 495.28,380.75 
			499.25,380.75 499.25,384.72 500.75,384.72 500.75,380.75 504.72,380.75 	"/>
		<polygon class="bg-vertices" points="604.72,379.25 600.75,379.25 600.75,375.28 599.25,375.28 599.25,379.25 595.28,379.25 595.28,380.75 
			599.25,380.75 599.25,384.72 600.75,384.72 600.75,380.75 604.72,380.75 	"/>
		<polygon class="bg-vertices" points="704.72,379.25 700.75,379.25 700.75,375.28 699.25,375.28 699.25,379.25 695.28,379.25 695.28,380.75 
			699.25,380.75 699.25,384.72 700.75,384.72 700.75,380.75 704.72,380.75 	"/>
		<polygon class="bg-vertices" points="804.72,379.25 800.75,379.25 800.75,375.28 799.25,375.28 799.25,379.25 795.28,379.25 795.28,380.75 
			799.25,380.75 799.25,384.72 800.75,384.72 800.75,380.75 804.72,380.75 	"/>
		<polygon class="bg-vertices" points="904.72,379.25 900.75,379.25 900.75,375.28 899.25,375.28 899.25,379.25 895.28,379.25 895.28,380.75 
			899.25,380.75 899.25,384.72 900.75,384.72 900.75,380.75 904.72,380.75 	"/>
		<polygon class="bg-vertices" points="1004.72,379.25 1000.75,379.25 1000.75,375.28 999.25,375.28 999.25,379.25 995.28,379.25 
			995.28,380.75 999.25,380.75 999.25,384.72 1000.75,384.72 1000.75,380.75 1004.72,380.75 	"/>
		<polygon class="bg-vertices" points="-395.28,479.25 -399.25,479.25 -399.25,475.28 -400.75,475.28 -400.75,479.25 -404.72,479.25 
			-404.72,480.75 -400.75,480.75 -400.75,484.72 -399.25,484.72 -399.25,480.75 -395.28,480.75 	"/>
		<polygon class="bg-vertices" points="-295.28,479.25 -299.25,479.25 -299.25,475.28 -300.75,475.28 -300.75,479.25 -304.72,479.25 
			-304.72,480.75 -300.75,480.75 -300.75,484.72 -299.25,484.72 -299.25,480.75 -295.28,480.75 	"/>
		<polygon class="bg-vertices" points="-195.28,479.25 -199.25,479.25 -199.25,475.28 -200.75,475.28 -200.75,479.25 -204.72,479.25 
			-204.72,480.75 -200.75,480.75 -200.75,484.72 -199.25,484.72 -199.25,480.75 -195.28,480.75 	"/>
		<polygon class="bg-vertices" points="-95.28,479.25 -99.25,479.25 -99.25,475.28 -100.75,475.28 -100.75,479.25 -104.72,479.25 
			-104.72,480.75 -100.75,480.75 -100.75,484.72 -99.25,484.72 -99.25,480.75 -95.28,480.75 	"/>
		<polygon class="bg-vertices" points="4.72,479.25 0.75,479.25 0.75,475.28 -0.75,475.28 -0.75,479.25 -4.72,479.25 -4.72,480.75 
			-0.75,480.75 -0.75,484.72 0.75,484.72 0.75,480.75 4.72,480.75 	"/>
		<polygon class="bg-vertices" points="104.72,479.25 100.75,479.25 100.75,475.28 99.25,475.28 99.25,479.25 95.28,479.25 95.28,480.75 
			99.25,480.75 99.25,484.72 100.75,484.72 100.75,480.75 104.72,480.75 	"/>
		<polygon class="bg-vertices" points="204.72,479.25 200.75,479.25 200.75,475.28 199.25,475.28 199.25,479.25 195.28,479.25 195.28,480.75 
			199.25,480.75 199.25,484.72 200.75,484.72 200.75,480.75 204.72,480.75 	"/>
		<polygon class="bg-vertices" points="304.72,479.25 300.75,479.25 300.75,475.28 299.25,475.28 299.25,479.25 295.28,479.25 295.28,480.75 
			299.25,480.75 299.25,484.72 300.75,484.72 300.75,480.75 304.72,480.75 	"/>
		<polygon class="bg-vertices" points="404.72,479.25 400.75,479.25 400.75,475.28 399.25,475.28 399.25,479.25 395.28,479.25 395.28,480.75 
			399.25,480.75 399.25,484.72 400.75,484.72 400.75,480.75 404.72,480.75 	"/>
		<polygon class="bg-vertices" points="504.72,479.25 500.75,479.25 500.75,475.28 499.25,475.28 499.25,479.25 495.28,479.25 495.28,480.75 
			499.25,480.75 499.25,484.72 500.75,484.72 500.75,480.75 504.72,480.75 	"/>
		<polygon class="bg-vertices" points="604.72,479.25 600.75,479.25 600.75,475.28 599.25,475.28 599.25,479.25 595.28,479.25 595.28,480.75 
			599.25,480.75 599.25,484.72 600.75,484.72 600.75,480.75 604.72,480.75 	"/>
		<polygon class="bg-vertices" points="704.72,479.25 700.75,479.25 700.75,475.28 699.25,475.28 699.25,479.25 695.28,479.25 695.28,480.75 
			699.25,480.75 699.25,484.72 700.75,484.72 700.75,480.75 704.72,480.75 	"/>
		<polygon class="bg-vertices" points="804.72,479.25 800.75,479.25 800.75,475.28 799.25,475.28 799.25,479.25 795.28,479.25 795.28,480.75 
			799.25,480.75 799.25,484.72 800.75,484.72 800.75,480.75 804.72,480.75 	"/>
		<polygon class="bg-vertices" points="904.72,479.25 900.75,479.25 900.75,475.28 899.25,475.28 899.25,479.25 895.28,479.25 895.28,480.75 
			899.25,480.75 899.25,484.72 900.75,484.72 900.75,480.75 904.72,480.75 	"/>
		<polygon class="bg-vertices" points="1004.72,479.25 1000.75,479.25 1000.75,475.28 999.25,475.28 999.25,479.25 995.28,479.25 
			995.28,480.75 999.25,480.75 999.25,484.72 1000.75,484.72 1000.75,480.75 1004.72,480.75 	"/>
		<polygon class="bg-vertices" points="-395.28,579.25 -399.25,579.25 -399.25,575.28 -400.75,575.28 -400.75,579.25 -404.72,579.25 
			-404.72,580.75 -400.75,580.75 -400.75,584.72 -399.25,584.72 -399.25,580.75 -395.28,580.75 	"/>
		<polygon class="bg-vertices" points="-295.28,579.25 -299.25,579.25 -299.25,575.28 -300.75,575.28 -300.75,579.25 -304.72,579.25 
			-304.72,580.75 -300.75,580.75 -300.75,584.72 -299.25,584.72 -299.25,580.75 -295.28,580.75 	"/>
		<polygon class="bg-vertices" points="-195.28,579.25 -199.25,579.25 -199.25,575.28 -200.75,575.28 -200.75,579.25 -204.72,579.25 
			-204.72,580.75 -200.75,580.75 -200.75,584.72 -199.25,584.72 -199.25,580.75 -195.28,580.75 	"/>
		<polygon class="bg-vertices" points="-95.28,579.25 -99.25,579.25 -99.25,575.28 -100.75,575.28 -100.75,579.25 -104.72,579.25 
			-104.72,580.75 -100.75,580.75 -100.75,584.72 -99.25,584.72 -99.25,580.75 -95.28,580.75 	"/>
		<polygon class="bg-vertices" points="4.72,579.25 0.75,579.25 0.75,575.28 -0.75,575.28 -0.75,579.25 -4.72,579.25 -4.72,580.75 
			-0.75,580.75 -0.75,584.72 0.75,584.72 0.75,580.75 4.72,580.75 	"/>
		<polygon class="bg-vertices" points="104.72,579.25 100.75,579.25 100.75,575.28 99.25,575.28 99.25,579.25 95.28,579.25 95.28,580.75 
			99.25,580.75 99.25,584.72 100.75,584.72 100.75,580.75 104.72,580.75 	"/>
		<polygon class="bg-vertices" points="204.72,579.25 200.75,579.25 200.75,575.28 199.25,575.28 199.25,579.25 195.28,579.25 195.28,580.75 
			199.25,580.75 199.25,584.72 200.75,584.72 200.75,580.75 204.72,580.75 	"/>
		<polygon class="bg-vertices" points="304.72,579.25 300.75,579.25 300.75,575.28 299.25,575.28 299.25,579.25 295.28,579.25 295.28,580.75 
			299.25,580.75 299.25,584.72 300.75,584.72 300.75,580.75 304.72,580.75 	"/>
		<polygon class="bg-vertices" points="404.72,579.25 400.75,579.25 400.75,575.28 399.25,575.28 399.25,579.25 395.28,579.25 395.28,580.75 
			399.25,580.75 399.25,584.72 400.75,584.72 400.75,580.75 404.72,580.75 	"/>
		<polygon class="bg-vertices" points="504.72,579.25 500.75,579.25 500.75,575.28 499.25,575.28 499.25,579.25 495.28,579.25 495.28,580.75 
			499.25,580.75 499.25,584.72 500.75,584.72 500.75,580.75 504.72,580.75 	"/>
		<polygon class="bg-vertices" points="604.72,579.25 600.75,579.25 600.75,575.28 599.25,575.28 599.25,579.25 595.28,579.25 595.28,580.75 
			599.25,580.75 599.25,584.72 600.75,584.72 600.75,580.75 604.72,580.75 	"/>
		<polygon class="bg-vertices" points="704.72,579.25 700.75,579.25 700.75,575.28 699.25,575.28 699.25,579.25 695.28,579.25 695.28,580.75 
			699.25,580.75 699.25,584.72 700.75,584.72 700.75,580.75 704.72,580.75 	"/>
		<polygon class="bg-vertices" points="804.72,579.25 800.75,579.25 800.75,575.28 799.25,575.28 799.25,579.25 795.28,579.25 795.28,580.75 
			799.25,580.75 799.25,584.72 800.75,584.72 800.75,580.75 804.72,580.75 	"/>
		<polygon class="bg-vertices" points="904.72,579.25 900.75,579.25 900.75,575.28 899.25,575.28 899.25,579.25 895.28,579.25 895.28,580.75 
			899.25,580.75 899.25,584.72 900.75,584.72 900.75,580.75 904.72,580.75 	"/>
		<polygon class="bg-vertices" points="1004.72,579.25 1000.75,579.25 1000.75,575.28 999.25,575.28 999.25,579.25 995.28,579.25 
			995.28,580.75 999.25,580.75 999.25,584.72 1000.75,584.72 1000.75,580.75 1004.72,580.75 	"/>
		<polygon class="bg-vertices" points="-395.28,679.25 -399.25,679.25 -399.25,675.28 -400.75,675.28 -400.75,679.25 -404.72,679.25 
			-404.72,680.75 -400.75,680.75 -400.75,684.72 -399.25,684.72 -399.25,680.75 -395.28,680.75 	"/>
		<polygon class="bg-vertices" points="-295.28,679.25 -299.25,679.25 -299.25,675.28 -300.75,675.28 -300.75,679.25 -304.72,679.25 
			-304.72,680.75 -300.75,680.75 -300.75,684.72 -299.25,684.72 -299.25,680.75 -295.28,680.75 	"/>
		<polygon class="bg-vertices" points="-195.28,679.25 -199.25,679.25 -199.25,675.28 -200.75,675.28 -200.75,679.25 -204.72,679.25 
			-204.72,680.75 -200.75,680.75 -200.75,684.72 -199.25,684.72 -199.25,680.75 -195.28,680.75 	"/>
		<polygon class="bg-vertices" points="-95.28,679.25 -99.25,679.25 -99.25,675.28 -100.75,675.28 -100.75,679.25 -104.72,679.25 
			-104.72,680.75 -100.75,680.75 -100.75,684.72 -99.25,684.72 -99.25,680.75 -95.28,680.75 	"/>
		<polygon class="bg-vertices" points="4.72,679.25 0.75,679.25 0.75,675.28 -0.75,675.28 -0.75,679.25 -4.72,679.25 -4.72,680.75 
			-0.75,680.75 -0.75,684.72 0.75,684.72 0.75,680.75 4.72,680.75 	"/>
		<polygon class="bg-vertices" points="104.72,679.25 100.75,679.25 100.75,675.28 99.25,675.28 99.25,679.25 95.28,679.25 95.28,680.75 
			99.25,680.75 99.25,684.72 100.75,684.72 100.75,680.75 104.72,680.75 	"/>
		<polygon class="bg-vertices" points="204.72,679.25 200.75,679.25 200.75,675.28 199.25,675.28 199.25,679.25 195.28,679.25 195.28,680.75 
			199.25,680.75 199.25,684.72 200.75,684.72 200.75,680.75 204.72,680.75 	"/>
		<polygon class="bg-vertices" points="304.72,679.25 300.75,679.25 300.75,675.28 299.25,675.28 299.25,679.25 295.28,679.25 295.28,680.75 
			299.25,680.75 299.25,684.72 300.75,684.72 300.75,680.75 304.72,680.75 	"/>
		<polygon class="bg-vertices" points="404.72,679.25 400.75,679.25 400.75,675.28 399.25,675.28 399.25,679.25 395.28,679.25 395.28,680.75 
			399.25,680.75 399.25,684.72 400.75,684.72 400.75,680.75 404.72,680.75 	"/>
		<polygon class="bg-vertices" points="504.72,679.25 500.75,679.25 500.75,675.28 499.25,675.28 499.25,679.25 495.28,679.25 495.28,680.75 
			499.25,680.75 499.25,684.72 500.75,684.72 500.75,680.75 504.72,680.75 	"/>
		<polygon class="bg-vertices" points="604.72,679.25 600.75,679.25 600.75,675.28 599.25,675.28 599.25,679.25 595.28,679.25 595.28,680.75 
			599.25,680.75 599.25,684.72 600.75,684.72 600.75,680.75 604.72,680.75 	"/>
		<polygon class="bg-vertices" points="704.72,679.25 700.75,679.25 700.75,675.28 699.25,675.28 699.25,679.25 695.28,679.25 695.28,680.75 
			699.25,680.75 699.25,684.72 700.75,684.72 700.75,680.75 704.72,680.75 	"/>
		<polygon class="bg-vertices" points="804.72,679.25 800.75,679.25 800.75,675.28 799.25,675.28 799.25,679.25 795.28,679.25 795.28,680.75 
			799.25,680.75 799.25,684.72 800.75,684.72 800.75,680.75 804.72,680.75 	"/>
		<polygon class="bg-vertices" points="904.72,679.25 900.75,679.25 900.75,675.28 899.25,675.28 899.25,679.25 895.28,679.25 895.28,680.75 
			899.25,680.75 899.25,684.72 900.75,684.72 900.75,680.75 904.72,680.75 	"/>
		<polygon class="bg-vertices" points="1004.72,679.25 1000.75,679.25 1000.75,675.28 999.25,675.28 999.25,679.25 995.28,679.25 
			995.28,680.75 999.25,680.75 999.25,684.72 1000.75,684.72 1000.75,680.75 1004.72,680.75 	"/>
		<polygon class="bg-vertices" points="-395.28,779.25 -399.25,779.25 -399.25,775.28 -400.75,775.28 -400.75,779.25 -404.72,779.25 
			-404.72,780.75 -400.75,780.75 -400.75,784.72 -399.25,784.72 -399.25,780.75 -395.28,780.75 	"/>
		<polygon class="bg-vertices" points="-295.28,779.25 -299.25,779.25 -299.25,775.28 -300.75,775.28 -300.75,779.25 -304.72,779.25 
			-304.72,780.75 -300.75,780.75 -300.75,784.72 -299.25,784.72 -299.25,780.75 -295.28,780.75 	"/>
		<polygon class="bg-vertices" points="-195.28,779.25 -199.25,779.25 -199.25,775.28 -200.75,775.28 -200.75,779.25 -204.72,779.25 
			-204.72,780.75 -200.75,780.75 -200.75,784.72 -199.25,784.72 -199.25,780.75 -195.28,780.75 	"/>
		<polygon class="bg-vertices" points="-95.28,779.25 -99.25,779.25 -99.25,775.28 -100.75,775.28 -100.75,779.25 -104.72,779.25 
			-104.72,780.75 -100.75,780.75 -100.75,784.72 -99.25,784.72 -99.25,780.75 -95.28,780.75 	"/>
		<polygon class="bg-vertices" points="4.72,779.25 0.75,779.25 0.75,775.28 -0.75,775.28 -0.75,779.25 -4.72,779.25 -4.72,780.75 
			-0.75,780.75 -0.75,784.72 0.75,784.72 0.75,780.75 4.72,780.75 	"/>
		<polygon class="bg-vertices" points="104.72,779.25 100.75,779.25 100.75,775.28 99.25,775.28 99.25,779.25 95.28,779.25 95.28,780.75 
			99.25,780.75 99.25,784.72 100.75,784.72 100.75,780.75 104.72,780.75 	"/>
		<polygon class="bg-vertices" points="204.72,779.25 200.75,779.25 200.75,775.28 199.25,775.28 199.25,779.25 195.28,779.25 195.28,780.75 
			199.25,780.75 199.25,784.72 200.75,784.72 200.75,780.75 204.72,780.75 	"/>
		<polygon class="bg-vertices" points="304.72,779.25 300.75,779.25 300.75,775.28 299.25,775.28 299.25,779.25 295.28,779.25 295.28,780.75 
			299.25,780.75 299.25,784.72 300.75,784.72 300.75,780.75 304.72,780.75 	"/>
		<polygon class="bg-vertices" points="404.72,779.25 400.75,779.25 400.75,775.28 399.25,775.28 399.25,779.25 395.28,779.25 395.28,780.75 
			399.25,780.75 399.25,784.72 400.75,784.72 400.75,780.75 404.72,780.75 	"/>
		<polygon class="bg-vertices" points="504.72,779.25 500.75,779.25 500.75,775.28 499.25,775.28 499.25,779.25 495.28,779.25 495.28,780.75 
			499.25,780.75 499.25,784.72 500.75,784.72 500.75,780.75 504.72,780.75 	"/>
		<polygon class="bg-vertices" points="604.72,779.25 600.75,779.25 600.75,775.28 599.25,775.28 599.25,779.25 595.28,779.25 595.28,780.75 
			599.25,780.75 599.25,784.72 600.75,784.72 600.75,780.75 604.72,780.75 	"/>
		<polygon class="bg-vertices" points="704.72,779.25 700.75,779.25 700.75,775.28 699.25,775.28 699.25,779.25 695.28,779.25 695.28,780.75 
			699.25,780.75 699.25,784.72 700.75,784.72 700.75,780.75 704.72,780.75 	"/>
		<polygon class="bg-vertices" points="804.72,779.25 800.75,779.25 800.75,775.28 799.25,775.28 799.25,779.25 795.28,779.25 795.28,780.75 
			799.25,780.75 799.25,784.72 800.75,784.72 800.75,780.75 804.72,780.75 	"/>
		<polygon class="bg-vertices" points="904.72,779.25 900.75,779.25 900.75,775.28 899.25,775.28 899.25,779.25 895.28,779.25 895.28,780.75 
			899.25,780.75 899.25,784.72 900.75,784.72 900.75,780.75 904.72,780.75 	"/>
		<polygon class="bg-vertices" points="1004.72,779.25 1000.75,779.25 1000.75,775.28 999.25,775.28 999.25,779.25 995.28,779.25 
			995.28,780.75 999.25,780.75 999.25,784.72 1000.75,784.72 1000.75,780.75 1004.72,780.75 	"/>
	</g>
</svg>
